<?xml version="1.0" encoding="utf-8" standalone="no"?>
<!DOCTYPE svg PUBLIC "-//W3C//DTD SVG 1.1//EN"
  "http://www.w3.org/Graphics/SVG/1.1/DTD/svg11.dtd">
<!-- Created with matplotlib (http://matplotlib.org/) -->
<svg height="576pt" version="1.1" viewBox="0 0 1080 576" width="1080pt" xmlns="http://www.w3.org/2000/svg" xmlns:xlink="http://www.w3.org/1999/xlink">
 <defs>
  <style type="text/css">
*{stroke-linecap:butt;stroke-linejoin:round;}
  </style>
 </defs>
 <g id="figure_1">
  <g id="patch_1">
   <path d="M 0 576 
L 1080 576 
L 1080 0 
L 0 0 
z
" style="fill:#ffffff;"/>
  </g>
  <g id="axes_1">
   <g id="patch_2">
    <path d="M 414.877631 504 
L 692.122369 504 
L 692.122369 69.12 
L 414.877631 69.12 
z
" style="fill:#ffffff;"/>
   </g>
   <g id="matplotlib.axis_1">
    <g id="xtick_1"/>
    <g id="xtick_2"/>
    <g id="xtick_3"/>
    <g id="xtick_4"/>
    <g id="xtick_5"/>
   </g>
   <g id="matplotlib.axis_2">
    <g id="ytick_1"/>
    <g id="ytick_2"/>
    <g id="ytick_3"/>
    <g id="ytick_4"/>
    <g id="ytick_5"/>
    <g id="ytick_6"/>
    <g id="ytick_7"/>
    <g id="ytick_8"/>
   </g>
   <g id="PatchCollection_1">
    <defs>
     <path d="M 430.562933 -253.989559 
L 429.915373 -256.049341 
L 428.398623 -263.242876 
L 427.584179 -270.549322 
L 427.479664 -277.900277 
L 428.086059 -285.226924 
L 429.397685 -292.460672 
L 431.402263 -299.5338 
L 434.081027 -306.38009 
L 437.408899 -312.93545 
L 441.354724 -319.138509 
L 511.23083 -418.070322 
L 511.288648 -418.312595 
L 513.489681 -424.844544 
L 516.273606 -431.15015 
L 519.617513 -437.17752 
L 528.149576 -451.034975 
L 532.343354 -457.155433 
L 537.114073 -462.837686 
L 542.416246 -468.027555 
L 548.199314 -472.675554 
L 554.408137 -476.737363 
L 560.983512 -480.174254 
L 567.862743 -482.953454 
L 574.980235 -485.048465 
L 582.268124 -486.43931 
L 589.656918 -487.112727 
L 597.076166 -487.062296 
L 604.455123 -486.288496 
L 611.723431 -484.798707 
L 618.811786 -482.607134 
L 625.6526 -479.734672 
L 632.180646 -476.208713 
L 638.333678 -472.062875 
L 644.053026 -467.33669 
L 649.284157 -462.075222 
L 653.97719 -456.328639 
L 658.087378 -450.151736 
L 661.57553 -443.603411 
L 664.408385 -436.7461 
L 666.558933 -429.645191 
L 668.006667 -422.368389 
L 675.188143 -374.04879 
L 675.995791 -364.527353 
L 679.520336 -202.122827 
L 679.303829 -194.510672 
L 678.326441 -186.958422 
L 676.597991 -179.541938 
L 674.13584 -172.335719 
L 670.96472 -165.412153 
L 667.116486 -158.840785 
L 662.629793 -152.687626 
L 657.549711 -147.014485 
L 651.927267 -141.878348 
L 645.818941 -137.330807 
L 639.28609 -133.417543 
L 632.394338 -130.177865 
L 625.21291 -127.644314 
L 617.813946 -125.842342 
L 610.271768 -124.790048 
L 602.662137 -124.498003 
L 595.061492 -124.96914 
L 583.15743 -126.308488 
L 554.317793 -105.788181 
L 548.118738 -101.815199 
L 541.564241 -98.460882 
L 534.715854 -95.756728 
L 527.637884 -93.728128 
L 520.396799 -92.394135 
L 513.060593 -91.767273 
L 505.698159 -91.853429 
L 498.378632 -92.651795 
L 491.170746 -94.154874 
L 484.142186 -96.34855 
L 477.358954 -99.212225 
L 470.884748 -102.719006 
L 464.780363 -106.835965 
L 459.103122 -111.52444 
L 453.906336 -116.740404 
L 449.238807 -122.434879 
L 445.144364 -128.554389 
L 441.661457 -135.04147 
L 438.82279 -141.835205 
L 436.655021 -148.871798 
L 435.178505 -156.085172 
L 434.407108 -163.40759 
L 434.348074 -170.770292 
L 435.001957 -178.104139 
L 436.362617 -185.340261 
L 438.417277 -192.410709 
L 441.146641 -199.249089 
L 444.525082 -205.791184 
L 448.520872 -211.975561 
L 451.069297 -215.529379 
L 448.461522 -218.161798 
L 443.817196 -223.859244 
L 439.745137 -229.978802 
L 436.283454 -236.463199 
L 433.464545 -243.251748 
L 431.314792 -250.280917 
L 430.562933 -253.989559 
" id="mc7bf79737f" style="stroke:#ffffff;"/>
    </defs>
    <g clip-path="url(#pb45ba45e71)">
     <use style="fill:#ff0000;stroke:#ffffff;" x="0" xlink:href="#mc7bf79737f" y="576"/>
    </g>
   </g>
   <g id="PathCollection_1">
    <defs>
     <path d="M 0 1.936492 
C 0.513564 1.936492 1.006162 1.732451 1.369306 1.369306 
C 1.732451 1.006162 1.936492 0.513564 1.936492 0 
C 1.936492 -0.513564 1.732451 -1.006162 1.369306 -1.369306 
C 1.006162 -1.732451 0.513564 -1.936492 0 -1.936492 
C -0.513564 -1.936492 -1.006162 -1.732451 -1.369306 -1.369306 
C -1.732451 -1.006162 -1.936492 -0.513564 -1.936492 0 
C -1.936492 0.513564 -1.732451 1.006162 -1.369306 1.369306 
C -1.006162 1.732451 -0.513564 1.936492 0 1.936492 
z
" id="m0ed4280540" style="stroke:#000000;"/>
    </defs>
    <g clip-path="url(#pb45ba45e71)">
     <use style="stroke:#000000;" x="592.850693" xlink:href="#m0ed4280540" y="164.801629"/>
     <use style="stroke:#000000;" x="600.032169" xlink:href="#m0ed4280540" y="213.121229"/>
     <use style="stroke:#000000;" x="603.556713" xlink:href="#m0ed4280540" y="375.525755"/>
     <use style="stroke:#000000;" x="562.780408" xlink:href="#m0ed4280540" y="370.937936"/>
     <use style="stroke:#000000;" x="510.267421" xlink:href="#m0ed4280540" y="408.302576"/>
     <use style="stroke:#000000;" x="551.987846" xlink:href="#m0ed4280540" y="350.122796"/>
     <use style="stroke:#000000;" x="504.964012" xlink:href="#m0ed4280540" y="307.038022"/>
     <use style="stroke:#000000;" x="505.550195" xlink:href="#m0ed4280540" y="306.486838"/>
     <use style="stroke:#000000;" x="503.416794" xlink:href="#m0ed4280540" y="300.696286"/>
     <use style="stroke:#000000;" x="582.35407" xlink:href="#m0ed4280540" y="188.935509"/>
     <use style="stroke:#000000;" x="584.318631" xlink:href="#m0ed4280540" y="178.659084"/>
    </g>
   </g>
   <g id="patch_3">
    <path d="M 414.877631 504 
L 414.877631 69.12 
" style="fill:none;stroke:#262626;stroke-linecap:square;stroke-linejoin:miter;stroke-width:1.25;"/>
   </g>
   <g id="patch_4">
    <path d="M 692.122369 504 
L 692.122369 69.12 
" style="fill:none;stroke:#262626;stroke-linecap:square;stroke-linejoin:miter;stroke-width:1.25;"/>
   </g>
   <g id="patch_5">
    <path d="M 414.877631 504 
L 692.122369 504 
" style="fill:none;stroke:#262626;stroke-linecap:square;stroke-linejoin:miter;stroke-width:1.25;"/>
   </g>
   <g id="patch_6">
    <path d="M 414.877631 69.12 
L 692.122369 69.12 
" style="fill:none;stroke:#262626;stroke-linecap:square;stroke-linejoin:miter;stroke-width:1.25;"/>
   </g>
  </g>
 </g>
 <defs>
  <clipPath id="pb45ba45e71">
   <rect height="434.88" width="277.244738" x="414.877631" y="69.12"/>
  </clipPath>
 </defs>
</svg>
